<?xml version="1.0" encoding="utf-8"?>
<!-- Generator: Adobe Illustrator 22.1.0, SVG Export Plug-In . SVG Version: 6.00 Build 0)  -->
<svg version="1.1" id="Camada_1" xmlns="http://www.w3.org/2000/svg" xmlns:xlink="http://www.w3.org/1999/xlink" x="0px" y="0px"
	 viewBox="0 0 1080 388" style="enable-background:new 0 0 1080 388;" xml:space="preserve">
<style type="text/css">
	.st0{fill:#666666;}
	.st1{fill:#4BC718;}
	.st2{opacity:0.2;}
	.st3{fill:#FFFFFF;}
</style>
<g>
	<g>
		<path class="st0" d="M736.8,288.8v-63.8h22v-23h-22V176h-18.5l-7.4,25.7l-8,5.5c0.2-3.2,0.3-6.4,0.3-9.6c0-36.1-14-70-39.5-95.5
			c-25.5-25.5-59.4-39.5-95.5-39.5s-70,14-95.5,39.5c-3.4,3.4-6.6,6.9-9.6,10.6c-24.8-30.6-62.6-50.2-105-50.2
			c-74.4,0-135,60.6-135,135s60.6,135,135,135c42.3,0,80.2-19.6,104.9-50.2c3,3.7,6.2,7.3,9.6,10.7c26.3,26.3,60.9,39.5,95.5,39.5
			c24.4,0,48.8-6.6,70.4-19.7l10.9,10.9c5.9,5.9,13.5,8.8,21.2,8.8s15.4-2.9,21.2-8.8c11.7-11.7,11.7-30.7,0-42.4l-10.3-10.3
			c9.1-14,15.5-29.5,18.8-45.9h7.1v62.8c0,12.6,2.5,22,7.6,28.2c5.1,6.3,12.9,9.4,23.4,9.4c9.4,0,16.5-1.6,21.2-4.9V298
			c-4.7,2-9.1,3-13.2,3C740,301,736.8,297,736.8,288.8z M358.2,272.5c-41.4,0-75-33.6-75-75s33.6-75,75-75s75,33.6,75,75
			S399.6,272.5,358.2,272.5z M637.4,226.7l-1.9-1.9c-11.7-11.7-30.7-11.7-42.4,0c-11.7,11.7-11.7,30.7,0,42.4l0.8,0.8
			c-26.5,9.6-57.4,3.8-78.6-17.4c-14.2-14.2-22-33-22-53s7.8-38.9,22-53c14.2-14.2,33-22,53-22s38.9,7.8,53,22l0,0
			c14.2,14.2,22,33,22,53C643.2,207.7,641.2,217.6,637.4,226.7z M686.8,302.2c0,9-7.3,16.3-16.3,16.3s-16.3-7.3-16.3-16.3
			c0-9,7.3-16.3,16.3-16.3S686.8,293.2,686.8,302.2z"/>
	</g>
	<g>
		<path class="st0" d="M833.7,202.1c-10.6,48.2-16.2,74.1-16.8,77.5c-0.6,3.4-1.1,7.1-1.7,11.2c-0.5,4.1-0.9,7.2-0.9,9.4h-0.4
			c-0.2-2.8-0.8-7.3-1.7-13.5c-0.9-6.3-1.7-11-2.3-14.3l-15.5-70.2h-30l31.7,121.2H832l31.8-121.2H833.7z"/>
	</g>
</g>
<path class="st1" d="M674.6,263.9c14.1-21.7,21.6-46.9,21.6-73.4c0-36.1-14-70-39.5-95.5c-25.5-25.5-59.4-39.5-95.5-39.5
	s-70,14-95.5,39.5c-3.4,3.4-6.6,6.9-9.6,10.6c-24.8-30.6-62.6-50.2-105-50.2c-74.4,0-135,60.6-135,135s60.6,135,135,135
	c42.3,0,80.2-19.6,104.9-50.2c3,3.7,6.2,7.3,9.6,10.7c26.3,26.3,60.9,39.5,95.5,39.5c24.4,0,48.8-6.6,70.4-19.7l10.9,10.9
	c5.9,5.9,13.5,8.8,21.2,8.8s15.4-2.9,21.2-8.8c11.7-11.7,11.7-30.7,0-42.4L674.6,263.9z M351.2,265.5c-41.4,0-75-33.6-75-75
	s33.6-75,75-75s75,33.6,75,75S392.6,265.5,351.2,265.5z M630.4,219.7l-1.9-1.9c-11.7-11.7-30.7-11.7-42.4,0
	c-11.7,11.7-11.7,30.7,0,42.4l0.8,0.8c-26.5,9.6-57.4,3.8-78.6-17.4c-14.2-14.2-22-33-22-53s7.8-38.9,22-53c14.2-14.2,33-22,53-22
	s38.9,7.8,53,22l0,0c14.2,14.2,22,33,22,53C636.2,200.7,634.2,210.6,630.4,219.7z M663.5,311.5c-9,0-16.3-7.3-16.3-16.3
	c0-9,7.3-16.3,16.3-16.3s16.3,7.3,16.3,16.3C679.8,304.2,672.5,311.5,663.5,311.5z"/>
<g class="st2">
	<path class="st3" d="M674.6,263.9c14.1-21.7,21.6-46.9,21.6-73.4c0-36.1-14-70-39.5-95.5c-25.5-25.5-59.4-39.5-95.5-39.5
		s-70,14-95.5,39.5c-3.4,3.4-6.6,6.9-9.6,10.6c-24.8-30.6-62.6-50.2-105-50.2c-74.4,0-135,60.6-135,135c0,28.7,9,55.3,24.3,77.2
		c53.2,17.7,116.6,30.1,185.2,34.6c0.3,0,0.6,0,0.9,0.1c11.1-7.5,21.1-16.6,29.5-27c3,3.7,6.2,7.3,9.6,10.7
		c6.9,6.9,14.5,13,22.4,18.1c61.4-0.6,117.7-8.1,164.5-21c2.9-2.6,6.6-4.1,10.8-4.1c0.9,0,1.7,0.1,2.5,0.2c6.1-1.9,12.1-3.9,17.8-6
		L674.6,263.9z M351.2,265.5c-41.4,0-75-33.6-75-75s33.6-75,75-75s75,33.6,75,75S392.6,265.5,351.2,265.5z M630.4,219.7l-1.9-1.9
		c-11.7-11.7-30.7-11.7-42.4,0c-11.7,11.7-11.7,30.7,0,42.4l0.8,0.8c-26.5,9.6-57.4,3.8-78.6-17.4c-14.2-14.2-22-33-22-53
		s7.8-38.9,22-53c14.2-14.2,33-22,53-22s38.9,7.8,53,22l0,0c14.2,14.2,22,33,22,53C636.2,200.7,634.2,210.6,630.4,219.7z"/>
</g>
<g class="st2">
	<path class="st3" d="M656.7,95.1c-25.5-25.5-59.4-39.5-95.5-39.5s-70,14-95.5,39.5c-3.4,3.4-6.6,6.9-9.6,10.6
		c-24.8-30.6-62.6-50.2-105-50.2c-74.4,0-135,60.6-135,135c0,22.1,5.3,43,14.8,61.4c23,0,47.1-1.3,72.2-3.8
		c-16.5-13.8-27-34.5-27-57.6c0-41.4,33.6-75,75-75s75,33.6,75,75c0,14.3-4,27.6-11,39c13-3,26.1-6.2,39.2-9.8
		c11.6-3.1,23-6.5,34.2-9.9c-1.6-6.2-2.5-12.6-2.5-19.2c0-20,7.8-38.9,22-53c14.2-14.2,33-22,53-22s38.9,7.8,53,22l0,0
		c5.1,5.1,9.4,10.8,12.8,17c18.6-9.4,36.1-19.2,52.4-29.3C673.4,114.3,665.8,104.2,656.7,95.1z"/>
</g>
</svg>
