<?xml version="1.0" encoding="utf-8"?>
<!-- Generator: Adobe Illustrator 22.1.0, SVG Export Plug-In . SVG Version: 6.00 Build 0)  -->
<svg version="1.1" id="Camada_1" xmlns="http://www.w3.org/2000/svg" xmlns:xlink="http://www.w3.org/1999/xlink" x="0px" y="0px"
	 viewBox="0 0 648 240" style="enable-background:new 0 0 648 240;" xml:space="preserve">
<style type="text/css">
	.st0{fill:#4BC718;}
	.st1{fill:#2B2B2B;}
</style>
<g>
	<path class="st0" d="M91.9,110.3c0.5,1,0.8,2.2,0.8,3.7c0,3.6-1.1,5.8-3.3,6.5c-4.5,1.6-9.5,2.5-14.9,2.7
		c-1.4,6.3-4.3,11.4-8.5,15.2c-4.2,3.8-9,5.7-14.4,5.7c-4.5,0-8.4-1.1-11.6-3.3c-3.2-2.2-5.6-5.1-7.3-8.7c-1.7-3.6-2.5-7.5-2.5-11.8
		c0-5.7,1.1-10.8,3.3-15.3c2.2-4.5,5.2-8,9.1-10.5c3.8-2.5,8.1-3.8,12.8-3.8c5.7,0,10.4,2,13.9,5.9s5.6,8.8,6.2,14.7
		c3.5-0.2,7.8-1,12.7-2.3c0.6-0.2,1.1-0.2,1.6-0.2C90.6,108.8,91.3,109.3,91.9,110.3z M58.8,129.2c1.8-2,3-4.8,3.6-8.5
		c-2.3-1.6-4.1-3.7-5.4-6.2c-1.2-2.6-1.9-5.3-1.9-8.1c0-1.2,0.1-2.4,0.3-3.6h-0.6c-3,0-5.5,1.5-7.5,4.4c-2,2.9-3,7-3,12.3
		c0,4.2,0.8,7.3,2.4,9.5c1.6,2.2,3.5,3.3,5.7,3.3C54.9,132.1,57,131.1,58.8,129.2z"/>
	<path class="st0" d="M149,125.3c0,2.9-0.7,5.2-2,6.9c-1.3,1.7-3.1,2.5-5.4,2.5l-4.2-0.1c-0.8-0.1-1.8-0.1-3.3-0.1
		c0.3,4.3,0.5,8.6,0.5,12.9c0,11.4-1.5,21.3-4.5,29.8c-3,8.4-7.6,12.7-14,12.7c-4.3,0-7.6-2.5-9.8-7.4c-2.2-4.9-3.3-11-3.3-18.1
		c0-8.8,1-17.5,2.9-26.1c-2.6,3.9-5.9,5.9-10.1,5.9c-4.2,0-7.6-1.7-10.4-5.2c-2.8-3.5-4.1-8-4.1-13.5c0-6,1.4-11.6,4.2-17
		c2.8-5.4,6.6-9.7,11.3-13c4.7-3.3,9.8-4.9,15.1-4.9c1.8,0,3.2,0.6,4.2,1.8c0.7-2.4,1.7-4,3.1-4.9c1.4-0.8,3.2-1.2,5.7-1.2
		c2.6,0,4.3,0.4,5.1,1.1c0.9,0.8,1.3,1.9,1.2,3.3c0,0.9-0.5,3-1.4,6.3c-0.9,3.3-1.6,5.5-1.9,6.5c-1.2,4.2-2.5,8.9-3.9,14
		c-1.4,5.1-2.5,9.8-3.3,14c-2.4,12.1-3.6,22.7-3.6,32c0,3.5,0.3,6.4,0.8,8.9c0.6,2.5,1.3,3.7,2.2,3.7c0.8,0,1.6-1.3,2.4-3.8
		c0.9-2.6,1.6-6,2.2-10.3c0.6-4.3,0.9-8.9,0.9-13.7c0-5.7-0.3-10.8-0.8-15.3c-0.1-0.4-0.1-1-0.1-1.8c0-2.5,0.6-4.6,1.9-6.2
		c1.2-1.7,3-2.5,5.3-2.5c0.3,0,3.2-0.1,8.6-0.3c2.3-0.2,4.2-0.3,5.8-0.3C148.2,121.8,149,123,149,125.3z M105.5,129.4
		c1.6-2.2,2.7-4.7,3.4-7.8l4.9-20.6c-3.3,0.1-6.4,1.2-9.1,3.5c-2.8,2.3-4.9,5.3-6.6,9c-1.6,3.7-2.4,7.7-2.4,11.8
		c0,2.3,0.4,4.1,1.3,5.4c0.9,1.2,2.1,1.9,3.6,1.9C102.2,132.7,103.9,131.6,105.5,129.4z"/>
	<path class="st0" d="M156.8,141.4c-1.7-1.8-2.5-4.2-2.5-7.1c0-3.4,1-6.1,2.9-8.1c1.9-2,4.6-3.1,8.1-3.1c3.3,0,5.8,0.8,7.5,2.4
		c1.7,1.6,2.5,4,2.5,7.2c0,3.5-1,6.2-2.9,8.3c-2,2.1-4.6,3.1-8,3.1C161,144.1,158.5,143.2,156.8,141.4z"/>
	<path class="st1" d="M232.7,119.7c0.6,0.9,0.8,2.2,0.8,3.7c0,3-0.7,5.4-2.2,7c-3.2,4-6.8,7.3-10.6,9.8c-3.8,2.6-8.3,3.8-13.2,3.8
		c-15.4,0-23.1-10.8-23.1-32.5c0-3.3,0.1-6.7,0.3-10.1h-4.4c-2.3,0-3.8-0.4-4.6-1.2c-0.8-0.8-1.2-2.2-1.2-4c0-4.2,1.7-6.3,5.1-6.3
		h6.5c1.3-8.3,3.2-15.9,5.9-22.7c2.6-6.9,5.8-12.3,9.6-16.4c3.7-4.1,7.8-6.1,12.1-6.1c3.2,0,5.7,1.4,7.5,4.2
		c1.8,2.8,2.7,6.3,2.7,10.5c0,11.7-4.9,21.9-14.7,30.6h12.7c1.2,0,2.1,0.3,2.6,0.8c0.5,0.5,0.8,1.5,0.8,2.9c0,5.2-4.3,7.8-12.8,7.8
		h-13.8c-0.2,3.8-0.2,6.7-0.2,8.8c0,7.8,0.9,13.4,2.8,16.5c1.8,3.2,4.8,4.8,8.8,4.8c3.2,0,6.1-1,8.6-2.9c2.5-2,5.4-4.9,8.8-8.8
		c0.9-1.1,1.9-1.6,3.1-1.6C231.4,118.3,232.2,118.8,232.7,119.7z M206.8,59.8c-1.4,2.8-2.7,6.8-4,11.8c-1.2,5-2.3,10.6-3.1,16.7
		c4.5-3.8,7.8-8.2,10-13c2.2-4.8,3.3-9.1,3.3-13.1c0-4.5-0.8-6.7-2.5-6.7C209.5,55.6,208.2,57,206.8,59.8z"/>
	<path class="st1" d="M277.2,119.7c0.6,0.9,0.8,2.2,0.8,3.7c0,3-0.7,5.4-2.2,7c-2.8,3.4-6.7,6.5-11.8,9.4
		c-5.1,2.9-10.5,4.3-16.4,4.3c-7.9,0-14.1-2.2-18.4-6.5c-4.4-4.3-6.6-10.2-6.6-17.7c0-5.2,1.1-10.1,3.3-14.5
		c2.2-4.5,5.2-8.1,9.1-10.7c3.9-2.6,8.3-4,13.2-4c4.4,0,7.9,1.3,10.5,3.9c2.6,2.6,4,6.1,4,10.6c0,5.2-1.9,9.7-5.6,13.4
		c-3.7,3.7-10.1,6.7-19,8.9c1.9,3.5,5.5,5.2,10.8,5.2c3.4,0,7.3-1.2,11.6-3.6c4.3-2.4,8.1-5.5,11.3-9.3c0.9-1.1,1.9-1.6,3.1-1.6
		C275.9,118.3,276.6,118.8,277.2,119.7z M239.3,106.8c-1.9,3.2-2.9,7.2-2.9,11.8v0.2c4.5-1.1,8-2.6,10.5-4.8
		c2.6-2.1,3.8-4.6,3.8-7.4c0-1.4-0.4-2.6-1.2-3.5c-0.8-0.9-1.9-1.3-3.2-1.3C243.6,101.9,241.2,103.5,239.3,106.8z"/>
	<path class="st1" d="M270.9,139.6c-1.2-3-1.8-7.8-1.8-14.5c0-9.8,1.4-19.1,4.2-28c0.7-2.2,1.8-3.8,3.3-4.8c1.5-1,3.7-1.5,6.5-1.5
		c1.5,0,2.6,0.2,3.2,0.6c0.6,0.4,0.9,1.1,0.9,2.2c0,1.2-0.6,3.9-1.7,8.1c-0.8,3-1.4,5.6-1.8,7.9c-0.5,2.2-0.8,5-1.1,8.3
		c2-5.9,4.5-10.9,7.3-14.9c2.8-4.1,5.7-7.1,8.7-9.1c3-2,5.8-3,8.4-3c2.6,0,4.5,0.6,5.6,1.8c1.1,1.2,1.6,3.1,1.6,5.5
		c0,2.4-0.7,6.8-2.2,13.1c-0.6,2.7-1,4.8-1.2,6.1c3.8-9.3,8-16,12.6-20.3c4.6-4.2,8.9-6.3,12.9-6.3c4.9,0,7.4,2.5,7.4,7.4
		c0,2.9-0.8,8.3-2.5,16c-1.4,6.6-2.2,10.9-2.2,13c0,3,1.1,4.5,3.3,4.5c1.5,0,3.3-0.9,5.4-2.8c2.1-1.8,4.8-4.8,8.3-9
		c0.9-1.1,1.9-1.6,3.1-1.6c1,0,1.8,0.5,2.3,1.4c0.6,0.9,0.8,2.2,0.8,3.7c0,3-0.7,5.4-2.2,7c-3.2,4-6.7,7.3-10.5,9.8
		c-3.7,2.6-8,3.8-12.7,3.8c-3.8,0-6.8-1.1-8.7-3.3c-2-2.2-2.9-5.5-2.9-9.7c0-2.1,0.5-5.9,1.6-11.3c1-4.8,1.5-8,1.5-9.8
		c0-1.2-0.4-1.8-1.2-1.8c-1,0-2.4,1.3-4.2,3.8c-1.8,2.5-3.6,5.9-5.4,10c-1.8,4.2-3.3,8.5-4.4,13.1c-0.8,3.6-1.8,6-2.9,7.2
		c-1.1,1.2-2.8,1.8-5.3,1.8c-2.5,0-4.4-1.2-5.6-3.6s-1.9-5.3-1.9-8.7c0-2.9,0.4-7,1.1-12.4c0.6-4.8,0.9-8,0.9-9.5
		c0-1.2-0.4-1.8-1.2-1.8c-1.1,0-2.6,1.4-4.3,4.1c-1.7,2.7-3.4,6.2-5,10.4c-1.6,4.2-2.9,8.4-3.9,12.4c-0.8,3.5-1.8,5.9-2.9,7.2
		c-1.1,1.2-2.8,1.9-5.1,1.9C274.1,144.1,272,142.6,270.9,139.6z"/>
	<path class="st1" d="M415.8,119.7c0.6,0.9,0.8,2.2,0.8,3.7c0,3-0.7,5.4-2.2,7c-3.2,4-6.7,7.3-10.5,9.8c-3.7,2.6-8,3.8-12.7,3.8
		c-4,0-7.2-1.4-9.7-4.3c-4.3,2.8-8.8,4.2-13.5,4.3c-1,14.6-3.2,26.7-6.7,36.5c-3.5,9.8-8.6,14.7-15.3,14.7c-4.1,0-7.1-1.5-9.1-4.4
		c-2-2.9-2.9-7-2.9-12.2c0-7.4,1.7-16,5.1-25.9c3.4-9.8,8.6-20.7,15.7-32.5c0-11-0.1-18.7-0.2-23c-0.1-2.2,0.8-3.9,2.6-5.2
		c1.8-1.3,4.1-1.9,6.8-1.9c1.6,0,2.7,0.3,3.5,1c0.7,0.6,1.1,1.9,1.2,3.8c0,1.9,0,3.3,0.1,4.2c2.4-3,4.8-5.2,7.1-6.5
		c2.3-1.3,4.8-2,7.5-2c4.2,0,7.7,1.7,10.4,5.1c2.7,3.4,4,7.8,4,13.4c0,4-0.6,7.9-1.9,11.7c-1.3,3.8-3.1,7.2-5.3,10.3
		c1.6,0.5,2.9,0.7,4,0.7c2.5,0,4.9-0.9,7.1-2.7s5.2-4.8,8.7-9.1c0.9-1.1,1.9-1.6,3.1-1.6C414.5,118.3,415.3,118.8,415.8,119.7z
		 M352.2,170.9c1.4-8.9,2.2-19.9,2.6-33.1c-3.2,7.5-5.8,14.8-7.7,21.6c-1.9,6.9-2.8,12.6-2.8,17.3c0,2.4,0.3,4.3,0.8,5.5
		c0.6,1.3,1.2,1.9,2,1.9C349.1,184.2,350.8,179.7,352.2,170.9z M376.2,128.8c2.3-2.4,4.1-5.3,5.5-8.8c1.4-3.5,2-7.2,2-11
		c0-2.3-0.5-4-1.4-5.1c-0.9-1.2-2.1-1.8-3.6-1.8c-2.7,0-6,2.9-9.8,8.6c-0.1,3.3-0.1,8.2-0.1,14.6c0,3.5,0,6.2-0.1,8
		C371.4,132.6,373.9,131.1,376.2,128.8z"/>
	<path class="st1" d="M409.5,139.6c-1.2-3-1.8-7.8-1.8-14.5c0-9.8,1.4-19.1,4.2-28c0.7-2.2,1.8-3.8,3.3-4.8c1.5-1,3.7-1.5,6.5-1.5
		c1.5,0,2.6,0.2,3.2,0.6c0.6,0.4,0.9,1.1,0.9,2.2c0,1.2-0.6,3.9-1.7,8.1c-0.8,3-1.4,5.7-1.8,7.9c-0.5,2.3-0.8,5.1-1.1,8.4
		c2.5-6.5,5.3-11.8,8.4-15.8c3.1-4.1,6.1-7,9.1-8.7c3-1.7,5.7-2.6,8.2-2.6c4.9,0,7.4,2.5,7.4,7.4c0,1-0.3,3.4-1,7.1
		c-0.6,3-0.9,4.9-0.9,5.7c0,2.6,0.9,4,2.8,4c2.1,0,4.8-1.7,8.1-5c1-1,2-1.5,3.1-1.5c1,0,1.8,0.4,2.3,1.3c0.6,0.9,0.8,2,0.8,3.5
		c0,2.8-0.8,5-2.3,6.6c-2.1,2.2-4.6,4.1-7.4,5.6c-2.8,1.5-5.8,2.3-9,2.3c-4,0-7-1-9.1-3.1c-2.1-2-3.1-4.8-3.1-8.3
		c0-1.1,0.1-2.3,0.3-3.4c0.2-1.5,0.2-2.5,0.2-3.1c0-1.2-0.4-1.8-1.2-1.8c-1.1,0-2.6,1.3-4.5,3.8c-1.8,2.5-3.7,5.9-5.5,10
		c-1.8,4.2-3.3,8.5-4.4,13.1c-0.8,3.5-1.8,5.9-2.9,7.2c-1.1,1.2-2.8,1.9-5.1,1.9C412.7,144.1,410.7,142.6,409.5,139.6z"/>
	<path class="st1" d="M461.7,139c-2.8-3.4-4.2-7.8-4.2-13.4c0-6,1.4-11.8,4.2-17.1c2.8-5.4,6.5-9.7,11.1-13
		c4.6-3.3,9.6-4.9,14.8-4.9c1.7,0,2.8,0.3,3.3,1c0.6,0.6,1,1.8,1.4,3.5c1.6-0.3,3.2-0.5,5-0.5c3.7,0,5.5,1.3,5.5,4
		c0,1.6-0.6,5.4-1.7,11.3c-1.7,8.7-2.6,14.7-2.6,18.1c0,1.1,0.3,2,0.8,2.7c0.6,0.7,1.3,1,2.2,1c1.4,0,3.2-0.9,5.2-2.8
		c2-1.8,4.8-4.8,8.3-9c0.9-1.1,1.9-1.6,3.1-1.6c1,0,1.8,0.5,2.3,1.4c0.6,0.9,0.8,2.2,0.8,3.7c0,3-0.7,5.4-2.2,7
		c-3.1,3.8-6.4,7.1-9.8,9.7c-3.5,2.6-6.8,4-10.1,4c-2.5,0-4.8-0.8-6.8-2.5c-2.1-1.7-3.6-4-4.7-7c-3.9,6.3-8.9,9.5-14.8,9.5
		C468.3,144.1,464.5,142.4,461.7,139z M481.8,129.7c1.5-2,2.6-4.6,3.3-7.8l4.2-20.8c-3.2,0.1-6.1,1.3-8.8,3.6
		c-2.7,2.3-4.8,5.3-6.4,9.1c-1.6,3.8-2.4,7.8-2.4,12c0,2.3,0.5,4.1,1.4,5.2c0.9,1.1,2.2,1.7,3.9,1.7
		C478.7,132.7,480.3,131.7,481.8,129.7z"/>
	<path class="st1" d="M570.5,109c1.1,0,2,0.4,2.6,1.1c0.6,0.8,0.9,1.8,0.9,3.1c0,2.3-0.5,4.2-1.4,5.5c-0.9,1.3-2.3,2.3-4.1,2.9
		c-3.5,1.1-7.2,1.7-11.1,1.7c-3.3,0-6.5-0.5-9.4-1.4c-2.2,3.5-4.6,7.2-7.2,11c-3,4.3-5.6,7.2-7.8,8.8c-2.2,1.6-4.7,2.4-7.5,2.4
		c-3.1,0-5.5-1.2-7.3-3.6c-1.8-2.4-2.9-6.2-3.3-11.4c-0.9-10.6-1.4-19.8-1.4-27.7v-4c0.1-2.5,0.8-4.2,2-5.2c1.3-1,3.2-1.5,5.8-1.5
		c2,0,3.4,0.4,4.4,1.3c0.9,0.9,1.4,2.3,1.4,4.4c0,8.7,0.5,20,1.6,33.8c4.5-6.7,7.9-12.1,10.2-16.1c-1.1-2.2-1.7-4.8-1.7-7.8
		c0-2.6,0.6-5.1,1.7-7.5c1.1-2.4,2.7-4.4,4.6-5.9c2-1.5,4.2-2.3,6.7-2.3c2.2,0,4,0.8,5.3,2.3c1.4,1.5,2,3.8,2,6.7
		c0,3.4-0.9,7.3-2.7,11.7c2.9-0.2,6.7-0.7,11.4-1.7l3.1-0.6C569.6,109.1,570,109,570.5,109z"/>
	<path class="st1" d="M617,119.7c0.6,0.9,0.8,2.2,0.8,3.7c0,3-0.7,5.4-2.2,7c-2.8,3.4-6.7,6.5-11.8,9.4c-5.1,2.9-10.5,4.3-16.4,4.3
		c-7.9,0-14.1-2.2-18.4-6.5c-4.4-4.3-6.6-10.2-6.6-17.7c0-5.2,1.1-10.1,3.3-14.5c2.2-4.5,5.2-8.1,9.1-10.7c3.9-2.6,8.3-4,13.2-4
		c4.4,0,7.9,1.3,10.5,3.9c2.6,2.6,4,6.1,4,10.6c0,5.2-1.9,9.7-5.6,13.4c-3.7,3.7-10.1,6.7-19,8.9c1.9,3.5,5.5,5.2,10.8,5.2
		c3.4,0,7.3-1.2,11.6-3.6c4.3-2.4,8.1-5.5,11.3-9.3c0.9-1.1,1.9-1.6,3.1-1.6C615.6,118.3,616.4,118.8,617,119.7z M597.3,82.1
		c-1.1-0.9-1.7-2.5-2-4.8l-2.6-20l-9.8,20c-1.1,2.3-2.3,3.9-3.6,4.8c-1.3,0.8-2.7,1.2-4.3,1.2c-1.6,0-2.8-0.4-3.8-1.1
		c-0.9-0.7-1.4-1.8-1.4-3.1c0-1.3,0.4-2.6,1.2-4.1l12.7-21.8c1.4-2.3,2.9-4.1,4.6-5.3c1.7-1.2,3.7-1.8,6.1-1.8c2.3,0,4,0.7,5.3,2
		c1.3,1.4,2.3,3.5,2.9,6.5l5,20.4c0.2,0.9,0.3,1.7,0.3,2.5c0,1.9-0.6,3.3-1.9,4.4c-1.2,1-2.7,1.5-4.5,1.5
		C599.8,83.4,598.4,83,597.3,82.1z M579,106.8c-1.9,3.2-2.9,7.2-2.9,11.8v0.2c4.5-1.1,8-2.6,10.5-4.8c2.6-2.1,3.8-4.6,3.8-7.4
		c0-1.4-0.4-2.6-1.2-3.5c-0.8-0.9-1.9-1.3-3.2-1.3C583.3,101.9,581,103.5,579,106.8z"/>
</g>
<text transform="matrix(1 0 0 1 540 540)" style="font-family:'MyriadPro-Regular'; font-size:12px;">4BC718</text>
</svg>
