<?xml version="1.0" encoding="utf-8"?>
<!-- Generator: Adobe Illustrator 22.1.0, SVG Export Plug-In . SVG Version: 6.00 Build 0)  -->
<svg version="1.1" id="Camada_1" xmlns="http://www.w3.org/2000/svg" xmlns:xlink="http://www.w3.org/1999/xlink" x="0px" y="0px"
	 viewBox="0 0 1080 388" style="enable-background:new 0 0 1080 388;" xml:space="preserve">
<style type="text/css">
	.st0{opacity:0.75;}
	.st1{fill:#4BC718;}
	.st2{opacity:0.2;}
	.st3{fill:#FFFFFF;}
</style>
<g class="st0">
	<path d="M679.4,274.4c14.1-21.7,21.6-46.9,21.6-73.4c0-36.1-14-70-39.5-95.5C636,80.1,602.1,66.1,566,66.1s-70,14-95.5,39.5
		c-3.4,3.4-6.6,6.9-9.6,10.6C436.2,85.6,398.4,66,356,66c-74.4,0-135,60.6-135,135s60.6,135,135,135c42.3,0,80.2-19.6,104.9-50.2
		c3,3.7,6.2,7.3,9.6,10.7c26.3,26.3,60.9,39.5,95.5,39.5c24.4,0,48.8-6.6,70.4-19.7l10.9,10.9c5.9,5.9,13.5,8.8,21.2,8.8
		s15.4-2.9,21.2-8.8c11.7-11.7,11.7-30.7,0-42.4L679.4,274.4z M356,276c-41.4,0-75-33.6-75-75s33.6-75,75-75s75,33.6,75,75
		S397.4,276,356,276z M635.1,230.2l-1.9-1.9c-11.7-11.7-30.7-11.7-42.4,0c-11.7,11.7-11.7,30.7,0,42.4l0.8,0.8
		c-26.5,9.6-57.4,3.8-78.6-17.4c-14.2-14.2-22-33-22-53s7.8-38.9,22-53c14.2-14.2,33-22,53-22s38.9,7.8,53,22l0,0
		c14.2,14.2,22,33,22,53C641,211.2,639,221.1,635.1,230.2z M668.3,322c-9,0-16.3-7.3-16.3-16.3c0-9,7.3-16.3,16.3-16.3
		s16.3,7.3,16.3,16.3C684.6,314.7,677.3,322,668.3,322z"/>
</g>
<path class="st1" d="M672.4,267.4c14.1-21.7,21.6-46.9,21.6-73.4c0-36.1-14-70-39.5-95.5C629,73.1,595.1,59.1,559,59.1
	s-70,14-95.5,39.5c-3.4,3.4-6.6,6.9-9.6,10.6C429.2,78.6,391.4,59,349,59c-74.4,0-135,60.6-135,135s60.6,135,135,135
	c42.3,0,80.2-19.6,104.9-50.2c3,3.7,6.2,7.3,9.6,10.7c26.3,26.3,60.9,39.5,95.5,39.5c24.4,0,48.8-6.6,70.4-19.7l10.9,10.9
	c5.9,5.9,13.5,8.8,21.2,8.8s15.4-2.9,21.2-8.8c11.7-11.7,11.7-30.7,0-42.4L672.4,267.4z M349,269c-41.4,0-75-33.6-75-75
	s33.6-75,75-75s75,33.6,75,75S390.4,269,349,269z M628.1,223.2l-1.9-1.9c-11.7-11.7-30.7-11.7-42.4,0c-11.7,11.7-11.7,30.7,0,42.4
	l0.8,0.8c-26.5,9.6-57.4,3.8-78.6-17.4c-14.2-14.2-22-33-22-53s7.8-38.9,22-53c14.2-14.2,33-22,53-22s38.9,7.8,53,22l0,0
	c14.2,14.2,22,33,22,53C634,204.2,632,214.1,628.1,223.2z M661.3,315c-9,0-16.3-7.3-16.3-16.3c0-9,7.3-16.3,16.3-16.3
	s16.3,7.3,16.3,16.3C677.6,307.7,670.3,315,661.3,315z"/>
<g class="st2">
	<path class="st3" d="M672.4,267.4c14.1-21.7,21.6-46.9,21.6-73.4c0-36.1-14-70-39.5-95.5C629,73.1,595.1,59.1,559,59.1
		s-70,14-95.5,39.5c-3.4,3.4-6.6,6.9-9.6,10.6C429.2,78.6,391.4,59,349,59c-74.4,0-135,60.6-135,135c0,28.7,9,55.3,24.3,77.2
		c53.2,17.7,116.6,30.1,185.2,34.6c0.3,0,0.6,0,0.9,0.1c11.1-7.5,21.1-16.6,29.5-27c3,3.7,6.2,7.3,9.6,10.7
		c6.9,6.9,14.5,13,22.4,18.1c61.4-0.6,117.7-8.1,164.5-21c2.9-2.6,6.6-4.1,10.8-4.1c0.9,0,1.7,0.1,2.5,0.2c6.1-1.9,12.1-3.9,17.8-6
		L672.4,267.4z M349,269c-41.4,0-75-33.6-75-75s33.6-75,75-75s75,33.6,75,75S390.4,269,349,269z M628.1,223.2l-1.9-1.9
		c-11.7-11.7-30.7-11.7-42.4,0c-11.7,11.7-11.7,30.7,0,42.4l0.8,0.8c-26.5,9.6-57.4,3.8-78.6-17.4c-14.2-14.2-22-33-22-53
		s7.8-38.9,22-53c14.2-14.2,33-22,53-22s38.9,7.8,53,22l0,0c14.2,14.2,22,33,22,53C634,204.2,632,214.1,628.1,223.2z"/>
</g>
<g class="st2">
	<path class="st3" d="M654.5,98.6C629,73.1,595.1,59.1,559,59.1s-70,14-95.5,39.5c-3.4,3.4-6.6,6.9-9.6,10.6
		C429.2,78.6,391.4,59,349,59c-74.4,0-135,60.6-135,135c0,22.1,5.3,43,14.8,61.4c23,0,47.1-1.3,72.2-3.8c-16.5-13.8-27-34.5-27-57.6
		c0-41.4,33.6-75,75-75s75,33.6,75,75c0,14.3-4,27.6-11,39c13-3,26.1-6.2,39.2-9.8c11.6-3.1,23-6.5,34.2-9.9
		c-1.6-6.2-2.5-12.6-2.5-19.2c0-20,7.8-38.9,22-53c14.2-14.2,33-22,53-22s38.9,7.8,53,22l0,0c5.1,5.1,9.4,10.8,12.8,17
		c18.6-9.4,36.1-19.2,52.4-29.3C671.1,117.8,663.5,107.7,654.5,98.6z"/>
</g>
<g>
	<path d="M719.3,182.1v32.3h29.3v15.6h-29.3v60.6c0,13.9,3.9,21.8,15.3,21.8c5.3,0,9.3-0.7,11.8-1.4l0.9,15.3
		c-3.9,1.6-10.2,2.8-18.1,2.8c-9.5,0-17.2-3-22.1-8.6c-5.8-6-7.9-16-7.9-29.3v-61.3h-17.4v-15.6h17.4v-26.9L719.3,182.1z"/>
	<path d="M781.5,214.3l22.1,63.1c3.7,10.2,6.7,19.5,9.1,28.8h0.7c2.6-9.3,5.8-18.6,9.5-28.8l21.8-63.1H866l-44.1,112.4h-19.5
		l-42.7-112.4H781.5z"/>
</g>
</svg>
